# xmcd
#
# Track frame offsets:
#	150
#	12553
#	23498
#	38787
#	51490
#	64079
#	77801
#	89240
#	102811
#	116156
#	127944
#	140085
#	152805
#	165010
#	180219
#	193715
#	209490
#	220627
#	231835
#	245188
#	259117
#	270084
#	285396
#
# Disc length: 3973 seconds
#
# Revision: 5
# Processed by: cddbd v1.5.2PL0 Copyright (c) Steve Scherf et al.
# Submitted via: EasyCDDAExtractor 12.0.7.1
#
DISCID=410f8317
DTITLE=Conway Twitty - The Conway Twitty Collection [cd2]
DYEAR=1994
DGENRE=Country
TTITLE0=I Wonder What She'll Think About Me Leaving
TTITLE1=Lead Me On (With Loretta Lynn)
TTITLE2=(Lost Her Love) On Our Last Date
TTITLE3=I Can't Stop Loving You
TTITLE4=She Needs Someone To Hold Her (When She Cries)
TTITLE5=Baby's Gone
TTITLE6=Louisiana Woman, Mississippi Man (With Loretta Lynn)
TTITLE7=You've Never Been This Far Before
TTITLE8=There's A Honky Tonk Angel (Who'll Take Me Back In)
TTITLE9=I'm Not Through Loving You Yet
TTITLE10=As Soon As I Hang Up The Phone (With Loretta Lynn)
TTITLE11=I See The Want To In Your Eyes
TTITLE12=Linda On My Mind
TTITLE13=Touch The Hand
TTITLE14=Feelins' (With Loretta Lynn)
TTITLE15=I Just Had You On My Mind (Previously Unreleased)
TTITLE16=Hello Darlin' (In Russian)
TTITLE17=This Time I've Hurt Her More Than She Loves Me
TTITLE18=After All The Good Is Gone
TTITLE19=The Games That Daddies Play
TTITLE20=(I Can't Believe) She Gives It All To Me
TTITLE21=Play Guitar Play
TTITLE22=No Relief In Sight (Previously Unreleased)
EXTD=YEAR: 1994
EXTT0=
EXTT1=
EXTT2=
EXTT3=
EXTT4=
EXTT5=
EXTT6=
EXTT7=
EXTT8=
EXTT9=
EXTT10=
EXTT11=
EXTT12=
EXTT13=
EXTT14=
EXTT15=
EXTT16=
EXTT17=
EXTT18=
EXTT19=
EXTT20=
EXTT21=
EXTT22=
PLAYORDER=
